<?xml version="1.0" encoding="utf-8"?>
<!-- Generator: Adobe Illustrator 16.0.3, SVG Export Plug-In . SVG Version: 6.00 Build 0)  -->
<!DOCTYPE svg PUBLIC "-//W3C//DTD SVG 1.1//EN" "http://www.w3.org/Graphics/SVG/1.1/DTD/svg11.dtd">
<svg version="1.1" id="Layer_1" xmlns="http://www.w3.org/2000/svg" xmlns:xlink="http://www.w3.org/1999/xlink" x="0px" y="0px"
	 width="936px" height="720px" viewBox="0 0 936 720" enable-background="new 0 0 936 720" xml:space="preserve">
<g>
	<path fill="#717171" d="M440.187,619.536c-0.361,0.524-1.444,2.101-3.61,3.117c-1.378,0.657-2.855,0.887-4.201,0.887
		c-4.333,0-7.352-2.561-7.352-7.188c0-3.872,2.232-10.01,8.928-10.01c5.317,0,6.893,3.84,6.893,6.859
		c0,0.984-0.131,1.575-0.263,2.265h-11.389c-0.066,0.229-0.131,0.624-0.131,1.148c0,1.772,1.05,3.677,3.545,3.677
		c2.658,0,3.807-2.003,4.267-2.79L440.187,619.536z M436.839,612.577c0.164-2.625-1.542-3.348-2.855-3.348
		c-2.068,0-3.414,1.379-4.136,3.348H436.839z"/>
	<path fill="#717171" d="M465.428,623.113h-3.971l1.903-8.205c0.23-1.018,0.525-2.232,0.525-2.954c0-1.806-1.51-2.035-2.101-2.035
		c-0.952,0-2.002,0.492-2.79,1.28c-1.05,1.148-1.444,2.691-1.969,4.891l-1.608,7.023h-3.971l1.838-8.009
		c0.197-0.755,0.558-2.396,0.558-2.986c0-1.478-0.788-2.199-2.002-2.199c-0.82,0-1.608,0.328-2.199,0.788
		c-1.412,1.05-1.805,2.494-2.298,4.562l-1.805,7.845h-3.906l3.775-16.312h3.906l-0.394,1.739c0.624-0.688,2.035-2.034,4.529-2.034
		c0.656,0,1.28,0.098,1.838,0.295c1.641,0.525,2.134,1.575,2.396,2.232c1.477-1.576,3.479-2.527,5.613-2.527
		c2.429,0,4.726,1.443,4.726,4.233c0,1.018-0.328,2.429-0.624,3.774L465.428,623.113z"/>
	<path fill="#717171" d="M471.93,628.988h-3.906l5.12-22.22h3.873l-0.427,1.771c1.083-1.477,2.757-2.198,4.595-2.198
		c2.987,0,6.007,1.969,6.007,6.826c0,4.727-2.922,10.372-8.633,10.372c-3.381,0-4.463-1.772-4.824-2.396L471.93,628.988z
		 M483.188,613.3c0-2.429-1.313-3.709-3.349-3.709c-4.661,0-4.89,6.335-4.89,6.729c0,3.15,2.133,3.774,3.413,3.774
		c2.626,0,4.069-2.363,4.628-4.956C483.088,614.514,483.188,613.923,483.188,613.3z"/>
	<path fill="#717171" d="M495.89,623.54c-5.547,0-6.991-4.398-6.991-7.023c0-2.823,1.346-6.368,3.808-8.305
		c1.575-1.214,3.741-1.87,5.646-1.87c3.61,0,6.99,2.133,6.99,6.826c0,0.854-0.131,1.74-0.328,2.626
		C503.8,621.341,499.861,623.54,495.89,623.54z M501.403,613.267c0-2.626-1.542-3.643-3.282-3.643c-4.397,0-5.251,5.316-5.251,6.728
		c0,2.232,1.182,3.808,3.348,3.808c2.232,0,4.267-1.707,4.989-5.021C501.338,614.514,501.403,613.891,501.403,613.267z"/>
	<path fill="#717171" d="M522.444,623.113h-4.268V612.02l-5.316,11.094h-4.201l-0.591-16.312h3.84l-0.164,11.98l5.514-11.98h3.873
		v11.98l5.58-11.98h4.168L522.444,623.113z"/>
	<path fill="#717171" d="M545.19,619.536c-0.361,0.524-1.444,2.101-3.61,3.117c-1.379,0.657-2.855,0.887-4.201,0.887
		c-4.333,0-7.353-2.561-7.353-7.188c0-3.872,2.231-10.01,8.928-10.01c5.317,0,6.893,3.84,6.893,6.859
		c0,0.984-0.132,1.575-0.263,2.265h-11.39c-0.065,0.229-0.131,0.624-0.131,1.148c0,1.772,1.05,3.677,3.545,3.677
		c2.658,0,3.807-2.003,4.267-2.79L545.19,619.536z M541.842,612.577c0.164-2.625-1.542-3.348-2.855-3.348
		c-2.067,0-3.413,1.379-4.135,3.348H541.842z"/>
	<path fill="#717171" d="M550.574,623.113h-3.938l3.742-16.345h3.971l-0.853,2.822c2.362-3.02,4.496-3.085,6.006-2.987l-0.919,4.037
		c-0.689-0.032-0.689-0.032-0.952-0.032c-0.722,0-2.199,0.099-3.479,1.247c-1.149,1.05-1.51,2.33-1.937,4.103L550.574,623.113z"/>
	<path fill="#3499CD" d="M560.691,623.113h-4.332l1.018-4.431h4.332L560.691,623.113z"/>
	<path fill="#717171" d="M589.052,619.536c-0.361,0.524-1.444,2.101-3.61,3.117c-1.379,0.657-2.855,0.887-4.201,0.887
		c-4.333,0-7.353-2.561-7.353-7.188c0-3.872,2.231-10.01,8.928-10.01c5.317,0,6.893,3.84,6.893,6.859
		c0,0.984-0.132,1.575-0.263,2.265h-11.39c-0.065,0.229-0.131,0.624-0.131,1.148c0,1.772,1.05,3.677,3.545,3.677
		c2.658,0,3.807-2.003,4.267-2.79L589.052,619.536z M585.703,612.577c0.164-2.625-1.542-3.348-2.855-3.348
		c-2.067,0-3.413,1.379-4.135,3.348H585.703z"/>
	<path fill="#717171" d="M604.742,623.146h-4.005l1.871-8.107c0.296-1.346,0.46-2.134,0.46-2.855c0-0.394,0-2.265-2.101-2.265
		c-1.412,0-2.659,0.886-3.315,1.772c-0.788,1.083-1.182,2.626-1.608,4.529l-1.608,6.926h-3.938l3.742-16.346h3.741l-0.427,1.806
		c0.624-0.591,2.298-2.101,5.088-2.101c1.542,0,2.789,0.558,3.512,1.312c1.05,1.148,1.083,2.725,1.083,3.249
		c0,1.182-0.229,2.167-0.492,3.349L604.742,623.146z"/>
	<path fill="#717171" d="M624.01,617.861c-0.46,1.904-0.624,2.725-0.624,3.709c0,0.788,0.099,1.149,0.197,1.543h-4.201
		c-0.065-0.394-0.065-0.689-0.065-0.788c0-0.263,0-0.492,0.065-0.886c-1.018,0.952-2.462,2.002-5.021,2.002
		c-1.346,0-2.593-0.295-3.512-0.886c-1.248-0.821-1.97-2.232-1.97-3.808c0-1.51,0.656-3.02,1.772-3.972
		c1.444-1.312,3.315-1.477,5.35-1.706l3.053-0.263c1.477-0.132,1.772-0.23,2.231-0.395c0.197-0.886,0.23-1.018,0.23-1.346
		c0-0.755-0.296-1.772-2.987-1.772c-2.757,0-3.052,1.412-3.216,2.331h-4.201c0.196-2.101,1.805-3.545,2.789-4.103
		c1.149-0.657,2.757-1.018,4.825-1.018c2.363,0,4.3,0.524,5.35,1.477c1.215,1.051,1.28,2.396,1.28,2.987
		c0,0.82-0.131,1.378-0.656,3.741L624.01,617.861z M616.789,615.794c-1.707,0.197-1.903,0.229-2.265,0.361
		c-1.148,0.394-1.543,1.312-1.543,2.035c0,1.182,0.952,2.133,2.527,2.133c2.002,0,4.365-1.772,4.464-2.133l0.656-2.855
		L616.789,615.794z"/>
	<path fill="#717171" d="M630.674,623.113h-3.938l5.351-23.205h3.938l-1.838,7.976c0.524-0.459,1.739-1.542,4.201-1.542
		c3.741,0,6.17,2.658,6.17,6.761c0,3.873-2.199,10.438-8.73,10.438c-2.527,0-3.808-1.051-4.759-2.134L630.674,623.113z
		 M640.586,613.464c0-3.315-2.33-3.742-3.314-3.742c-4.07,0-4.956,5.383-4.956,6.893c0,2.396,1.575,3.479,3.348,3.479
		c0.624,0,1.214-0.099,1.707-0.328c2.166-0.952,2.888-3.808,3.052-4.727C640.521,614.514,640.586,613.989,640.586,613.464z"/>
	<path fill="#717171" d="M649.481,623.113h-3.971l5.35-23.172h3.972L649.481,623.113z"/>
	<path fill="#717171" d="M669.438,619.536c-0.361,0.524-1.444,2.101-3.61,3.117c-1.379,0.657-2.855,0.887-4.201,0.887
		c-4.333,0-7.353-2.561-7.353-7.188c0-3.872,2.231-10.01,8.928-10.01c5.317,0,6.893,3.84,6.893,6.859
		c0,0.984-0.132,1.575-0.263,2.265h-11.39c-0.065,0.229-0.131,0.624-0.131,1.148c0,1.772,1.05,3.677,3.545,3.677
		c2.658,0,3.807-2.003,4.267-2.79L669.438,619.536z M666.09,612.577c0.164-2.625-1.542-3.348-2.855-3.348
		c-2.067,0-3.413,1.379-4.135,3.348H666.09z"/>
	<path fill="#C81E55" d="M674.985,623.113h-4.332l1.018-4.431h4.332L674.985,623.113z"/>
	<path fill="#717171" d="M703.083,618.452c-0.296,0.624-0.821,1.806-1.937,2.889c-1.838,1.772-4.037,2.199-5.843,2.199
		c-4.726,0-7.155-3.02-7.155-7.023c0-4.596,2.987-10.175,8.928-10.175c3.184,0,6.171,1.607,6.663,4.988l-3.742,1.247
		c-0.032-0.591-0.131-2.986-2.855-2.986c-3.38,0-4.923,3.84-4.923,6.597c0,0.919,0.099,1.904,0.624,2.659
		c0.328,0.492,1.148,1.312,2.625,1.312c2.691,0,3.644-2.265,4.037-3.184L703.083,618.452z"/>
	<path fill="#717171" d="M711.158,623.54c-5.547,0-6.991-4.398-6.991-7.023c0-2.823,1.346-6.368,3.808-8.305
		c1.575-1.214,3.741-1.87,5.646-1.87c3.61,0,6.991,2.133,6.991,6.826c0,0.854-0.132,1.74-0.329,2.626
		C719.068,621.341,715.13,623.54,711.158,623.54z M716.672,613.267c0-2.626-1.542-3.643-3.282-3.643
		c-4.397,0-5.251,5.316-5.251,6.728c0,2.232,1.182,3.808,3.348,3.808c2.232,0,4.267-1.707,4.989-5.021
		C716.606,614.514,716.672,613.891,716.672,613.267z"/>
	<path fill="#717171" d="M735.776,623.146h-4.005l1.871-8.107c0.296-1.346,0.46-2.134,0.46-2.855c0-0.394,0-2.265-2.101-2.265
		c-1.412,0-2.659,0.886-3.315,1.772c-0.788,1.083-1.182,2.626-1.608,4.529l-1.608,6.926h-3.938l3.742-16.346h3.741l-0.427,1.806
		c0.624-0.591,2.298-2.101,5.088-2.101c1.542,0,2.789,0.558,3.512,1.312c1.05,1.148,1.083,2.725,1.083,3.249
		c0,1.182-0.229,2.167-0.492,3.349L735.776,623.146z"/>
	<path fill="#717171" d="M753.896,623.146h-4.005l1.871-8.107c0.296-1.346,0.46-2.134,0.46-2.855c0-0.394,0-2.265-2.101-2.265
		c-1.412,0-2.659,0.886-3.315,1.772c-0.788,1.083-1.182,2.626-1.608,4.529l-1.608,6.926h-3.938l3.742-16.346h3.741l-0.427,1.806
		c0.624-0.591,2.298-2.101,5.088-2.101c1.542,0,2.789,0.558,3.512,1.312c1.05,1.148,1.083,2.725,1.083,3.249
		c0,1.182-0.229,2.167-0.492,3.349L753.896,623.146z"/>
	<path fill="#717171" d="M773.787,619.536c-0.361,0.524-1.444,2.101-3.61,3.117c-1.379,0.657-2.855,0.887-4.201,0.887
		c-4.333,0-7.353-2.561-7.353-7.188c0-3.872,2.231-10.01,8.928-10.01c5.316,0,6.893,3.84,6.893,6.859
		c0,0.984-0.132,1.575-0.263,2.265h-11.39c-0.065,0.229-0.131,0.624-0.131,1.148c0,1.772,1.05,3.677,3.545,3.677
		c2.658,0,3.807-2.003,4.267-2.79L773.787,619.536z M770.438,612.577c0.164-2.625-1.542-3.348-2.855-3.348
		c-2.067,0-3.413,1.379-4.135,3.348H770.438z"/>
	<path fill="#717171" d="M790.986,618.452c-0.296,0.624-0.821,1.806-1.937,2.889c-1.838,1.772-4.037,2.199-5.843,2.199
		c-4.726,0-7.155-3.02-7.155-7.023c0-4.596,2.987-10.175,8.928-10.175c3.184,0,6.171,1.607,6.663,4.988l-3.742,1.247
		c-0.032-0.591-0.131-2.986-2.855-2.986c-3.38,0-4.923,3.84-4.923,6.597c0,0.919,0.099,1.904,0.624,2.659
		c0.328,0.492,1.148,1.312,2.625,1.312c2.691,0,3.644-2.265,4.037-3.184L790.986,618.452z"/>
	<path fill="#717171" d="M799.324,623.113c-0.82,0.099-1.379,0.197-2.232,0.197c-0.984,0-4.069-0.066-4.069-3.315
		c0-0.919,0.229-1.969,0.558-3.479l1.608-6.893h-2.429l0.656-2.823h2.429l1.313-5.711h3.905l-1.312,5.711h3.02l-0.656,2.823h-3.02
		l-1.642,7.023c-0.197,0.886-0.328,1.51-0.328,1.937c0,1.018,0.656,1.346,1.871,1.346c0.394,0,0.656-0.033,1.083-0.065
		L799.324,623.113z"/>
	<path fill="#717171" d="M805.363,623.113h-4.332l1.018-4.431h4.332L805.363,623.113z"/>
</g>
<g>
	<g>
		<path fill="#3499CD" d="M219.03,573.857c-4.666,4.344-14.319,13.192-33.465,13.192c-31.695,0-51.163-25.742-51.163-59.207
			c0-36.521,23.65-60.815,55.989-60.815c30.086,0,44.727,19.307,50.036,26.225l-21.559,13.031
			c-4.022-6.113-10.619-16.088-26.386-16.088c-21.56,0-29.765,17.858-29.765,36.843c0,12.871,3.54,23.329,9.01,28.96
			c4.344,4.666,12.066,8.205,20.755,8.205c5.148,0,10.94-1.287,15.606-4.344c7.401-4.826,8.366-10.94,9.17-16.893h-25.42v-21.56
			h49.393v63.068H219.03V573.857z"/>
		<path fill="#3499CD" d="M341.624,542.322c0,21.238-12.228,44.566-45.049,44.566c-23.65,0-45.209-13.515-45.209-44.566
			c0-25.742,16.25-46.175,48.427-44.404C334.062,499.848,341.624,527.038,341.624,542.322z M280.486,525.751
			c-3.057,4.827-4.183,10.619-4.183,16.411c0,13.354,6.436,25.099,20.271,25.099c13.354,0,19.95-10.78,19.95-23.973
			c0-9.331-2.252-16.571-6.918-21.076c-5.148-4.827-10.94-4.987-14.48-4.666C288.048,518.028,283.865,520.441,280.486,525.751z"/>
		<path fill="#3499CD" d="M341.943,500.492h26.064c10.297,37.326,12.067,45.049,14.802,61.137
			c3.378-18.662,3.861-20.754,8.849-40.543l5.148-20.594h25.42l-27.19,83.983h-25.903L341.943,500.492z"/>
		<path fill="#C81E55" d="M527.929,470.889v113.587h-28.478v-48.428h-41.509v48.428h-28.638V470.889h28.638v41.026h41.509v-41.026
			H527.929z"/>
		<path fill="#C81E55" d="M544.016,524.303c0.482-5.791,1.287-12.71,8.849-18.662c7.723-6.114,17.697-7.401,27.512-7.401
			c10.297,0,35.234,2.413,35.234,24.134v48.91c0,9.01,0.483,10.297,2.413,13.192h-24.294v-7.723
			c-6.274,4.666-13.354,9.976-25.742,9.976c-19.307,0-27.512-13.837-27.512-25.582c0-13.515,10.779-21.237,17.698-24.133
			c6.757-2.896,22.685-5.792,33.143-7.723v-4.505c-0.322-3.861-0.644-10.297-9.492-10.297c-10.94,0-12.389,6.757-13.032,9.813
			H544.016z M575.389,549.562c-4.184,1.609-10.619,4.022-10.619,10.458c0,4.022,3.54,8.527,9.332,8.527
			c3.057,0,5.953-1.126,8.527-2.735c8.205-5.148,8.526-12.871,8.688-21.559L575.389,549.562z"/>
		<path fill="#C81E55" d="M705.866,564.687c-3.057,4.826-6.436,10.136-13.192,14.962c-6.436,4.506-14.642,7.562-24.134,7.562
			c-16.089,0-41.67-9.653-41.67-43.923c0-24.455,14.158-45.049,42.152-45.049c9.332,0,25.26,2.574,35.878,20.111l-18.341,10.458
			c-1.448-3.058-3.057-5.953-7.079-8.85c-2.413-1.608-5.471-2.896-9.332-2.896c-13.354,0-17.858,15.284-17.858,25.42
			c0,11.102,5.471,25.099,18.663,25.099c1.287,0,7.401,0,12.55-5.792c2.091-2.413,2.896-4.344,3.7-6.757L705.866,564.687z"/>
		<path fill="#C81E55" d="M712.782,470.889h24.294v58.402l27.19-28.799h29.765l-28.96,29.925l32.66,54.059h-28.638l-21.56-36.2
			l-10.618,9.976v26.225h-24.134V470.889z"/>
	</g>
</g>
<polygon fill="#717171" points="465.653,58.545 630.935,122.747 796.216,186.949 465.653,186.949 135.09,186.949 300.37,122.747 "/>
<rect x="130.146" y="424.256" fill="#717171" width="671.012" height="34.517"/>
<rect x="145.333" y="402.165" fill="#717171" width="640.636" height="15.187"/>
<rect x="145.333" y="193.853" fill="#717171" width="640.636" height="15.188"/>
<g>
	<path fill="#3499CD" d="M183.593,241.759c8.514,0,15.425-6.909,15.425-15.428c0-8.52-6.911-15.424-15.425-15.424
		c-8.52,0-15.43,6.904-15.43,15.424C168.163,234.85,175.073,241.759,183.593,241.759z M209.442,245.02
		c-5.024-1.947-13.825-0.897-13.825-0.897s-5.66,9.281-8.723,13.761c-1.12,1.64-2.281,2.071-3.305,1.967
		c-1.021,0.104-2.182-0.327-3.303-1.967c-3.064-4.479-8.723-13.761-8.723-13.761s-8.802-1.05-13.825,0.897
		c-2.463,0.954-4.055,3.726-4.055,6.484c0,17.502,0.955,53.156,1.677,59.458c0.724,6.318,7.108,6.424,8.575,4.212
		c0-2.571,2.966,74.041,3.875,79.947c0.625,4.053,3.379,4.909,5.649,4.909h20.26c2.27,0,5.024-0.856,5.649-4.909
		c0.91-5.906,3.875-82.518,3.875-79.947c1.467,2.211,7.851,2.105,8.576-4.212c0.722-6.302,1.676-41.955,1.676-59.458
		C213.496,248.746,211.904,245.974,209.442,245.02z"/>
</g>
<g>
	<path fill="#C81E55" d="M264.183,241.759c8.513,0,15.424-6.909,15.424-15.428c0-8.52-6.912-15.424-15.424-15.424
		c-8.52,0-15.43,6.904-15.43,15.424C248.752,234.85,255.663,241.759,264.183,241.759z M290.033,245.02
		c-5.025-1.947-13.827-0.897-13.827-0.897s-5.66,9.281-8.723,13.761c-1.12,1.64-2.282,2.071-3.305,1.967
		c-1.022,0.104-2.182-0.327-3.304-1.967c-3.062-4.479-8.723-13.761-8.723-13.761s-8.8-1.05-13.825,0.897
		c-2.461,0.954-4.054,3.726-4.054,6.484c0,17.502,0.955,53.156,1.678,59.458c0.723,6.318,7.108,6.424,8.574,4.212
		c0-2.571,2.965,74.041,3.875,79.947c0.625,4.053,3.379,4.909,5.65,4.909h20.258c2.271,0,5.025-0.856,5.649-4.909
		c0.911-5.906,3.876-82.518,3.876-79.947c1.466,2.211,7.85,2.105,8.574-4.212c0.722-6.302,1.678-41.955,1.678-59.458
		C294.085,248.746,292.495,245.974,290.033,245.02z"/>
</g>
<g>
	<path fill="#3499CD" d="M344.771,241.759c8.514,0,15.425-6.909,15.425-15.428c0-8.52-6.912-15.424-15.425-15.424
		c-8.52,0-15.431,6.904-15.431,15.424C329.34,234.85,336.251,241.759,344.771,241.759z M370.623,245.02
		c-5.025-1.947-13.826-0.897-13.826-0.897s-5.662,9.281-8.722,13.761c-1.122,1.64-2.283,2.071-3.308,1.967
		c-1.02,0.104-2.182-0.327-3.303-1.967c-3.061-4.479-8.721-13.761-8.721-13.761s-8.803-1.05-13.826,0.897
		c-2.463,0.954-4.054,3.726-4.054,6.484c0,17.502,0.956,53.156,1.677,59.458c0.724,6.318,7.107,6.424,8.574,4.212
		c0-2.571,2.968,74.041,3.877,79.947c0.624,4.053,3.378,4.909,5.648,4.909h20.261c2.27,0,5.023-0.856,5.648-4.909
		c0.909-5.906,3.875-82.518,3.875-79.947c1.467,2.211,7.851,2.105,8.574-4.212c0.723-6.302,1.677-41.955,1.677-59.458
		C374.674,248.746,373.083,245.974,370.623,245.02z"/>
</g>
<g>
	<path fill="#C81E55" d="M425.361,241.759c8.513,0,15.425-6.909,15.425-15.428c0-8.52-6.912-15.424-15.425-15.424
		c-8.52,0-15.43,6.904-15.43,15.424C409.931,234.85,416.841,241.759,425.361,241.759z M451.21,245.02
		c-5.024-1.947-13.826-0.897-13.826-0.897s-5.661,9.281-8.724,13.761c-1.12,1.64-2.279,2.071-3.302,1.967
		c-1.023,0.104-2.184-0.327-3.305-1.967c-3.062-4.479-8.724-13.761-8.724-13.761s-8.801-1.05-13.825,0.897
		c-2.461,0.954-4.054,3.726-4.054,6.484c0,17.502,0.956,53.156,1.677,59.458c0.724,6.318,7.11,6.424,8.575,4.212
		c0-2.571,2.965,74.041,3.876,79.947c0.623,4.053,3.377,4.909,5.648,4.909h20.259c2.269,0,5.023-0.856,5.649-4.909
		c0.911-5.906,3.876-82.518,3.876-79.947c1.467,2.211,7.851,2.105,8.574-4.212c0.724-6.302,1.678-41.955,1.678-59.458
		C455.264,248.746,453.67,245.974,451.21,245.02z"/>
</g>
<g>
	<path fill="#3499CD" d="M505.948,241.759c8.516,0,15.428-6.909,15.428-15.428c0-8.52-6.912-15.424-15.428-15.424
		c-8.519,0-15.429,6.904-15.429,15.424C490.52,234.85,497.43,241.759,505.948,241.759z M531.8,245.02
		c-5.024-1.947-13.824-0.897-13.824-0.897s-5.661,9.281-8.725,13.761c-1.12,1.64-2.281,2.071-3.305,1.967
		c-1.021,0.104-2.184-0.327-3.304-1.967c-3.063-4.479-8.723-13.761-8.723-13.761s-8.803-1.05-13.824,0.897
		c-2.464,0.954-4.055,3.726-4.055,6.484c0,17.502,0.955,53.156,1.678,59.458c0.724,6.318,7.107,6.424,8.575,4.212
		c0-2.571,2.966,74.041,3.875,79.947c0.626,4.053,3.378,4.909,5.649,4.909h20.258c2.271,0,5.024-0.856,5.649-4.909
		c0.91-5.906,3.875-82.518,3.875-79.947c1.467,2.211,7.851,2.105,8.576-4.212c0.722-6.302,1.677-41.955,1.677-59.458
		C535.854,248.746,534.262,245.974,531.8,245.02z"/>
</g>
<g>
	<path fill="#C81E55" d="M586.538,241.759c8.514,0,15.425-6.909,15.425-15.428c0-8.52-6.911-15.424-15.425-15.424
		c-8.52,0-15.43,6.904-15.43,15.424C571.108,234.85,578.019,241.759,586.538,241.759z M612.388,245.02
		c-5.024-1.947-13.827-0.897-13.827-0.897s-5.658,9.281-8.721,13.761c-1.121,1.64-2.281,2.071-3.306,1.967
		c-1.022,0.104-2.183-0.327-3.304-1.967c-3.062-4.479-8.721-13.761-8.721-13.761s-8.801-1.05-13.826,0.897
		c-2.462,0.954-4.053,3.726-4.053,6.484c0,17.502,0.953,53.156,1.676,59.458c0.723,6.318,7.108,6.424,8.574,4.212
		c0-2.571,2.965,74.041,3.875,79.947c0.624,4.053,3.381,4.909,5.65,4.909h20.259c2.27,0,5.025-0.856,5.649-4.909
		c0.911-5.906,3.875-82.518,3.875-79.947c1.467,2.211,7.849,2.105,8.575-4.212c0.722-6.302,1.677-41.955,1.677-59.458
		C616.441,248.746,614.85,245.974,612.388,245.02z"/>
</g>
<g>
	<path fill="#3499CD" d="M667.13,241.759c8.513,0,15.424-6.909,15.424-15.428c0-8.52-6.911-15.424-15.424-15.424
		c-8.521,0-15.434,6.904-15.434,15.424C651.696,234.85,658.608,241.759,667.13,241.759z M692.979,245.02
		c-5.023-1.947-13.825-0.897-13.825-0.897s-5.66,9.281-8.721,13.761c-1.121,1.64-2.284,2.071-3.309,1.967
		c-1.02,0.104-2.182-0.327-3.304-1.967c-3.061-4.479-8.721-13.761-8.721-13.761s-8.803-1.05-13.826,0.897
		c-2.462,0.954-4.053,3.726-4.053,6.484c0,17.502,0.955,53.156,1.677,59.458c0.723,6.318,7.106,6.424,8.573,4.212
		c0-2.571,2.969,74.041,3.878,79.947c0.623,4.053,3.378,4.909,5.646,4.909h20.263c2.268,0,5.021-0.856,5.646-4.909
		c0.908-5.906,3.876-82.518,3.876-79.947c1.467,2.211,7.852,2.105,8.574-4.212c0.724-6.302,1.678-41.955,1.678-59.458
		C697.032,248.746,695.441,245.974,692.979,245.02z"/>
</g>
<g>
	<path fill="#C81E55" d="M747.718,241.759c8.514,0,15.426-6.909,15.426-15.428c0-8.52-6.912-15.424-15.426-15.424
		c-8.52,0-15.43,6.904-15.43,15.424C732.288,234.85,739.198,241.759,747.718,241.759z M773.567,245.02
		c-5.023-1.947-13.825-0.897-13.825-0.897s-5.661,9.281-8.725,13.761c-1.119,1.64-2.278,2.071-3.303,1.967
		c-1.021,0.104-2.184-0.327-3.305-1.967c-3.062-4.479-8.723-13.761-8.723-13.761s-8.801-1.05-13.824,0.897
		c-2.462,0.954-4.055,3.726-4.055,6.484c0,17.502,0.957,53.156,1.678,59.458c0.724,6.318,7.11,6.424,8.575,4.212
		c0-2.571,2.966,74.041,3.877,79.947c0.622,4.053,3.377,4.909,5.647,4.909h20.259c2.27,0,5.023-0.856,5.649-4.909
		c0.91-5.906,3.875-82.518,3.875-79.947c1.467,2.211,7.852,2.105,8.575-4.212c0.723-6.302,1.678-41.955,1.678-59.458
		C777.622,248.746,776.028,245.974,773.567,245.02z"/>
</g>
</svg>
